# xmcd
#
# Track frame offsets:
#	150
#	13678
#	28908
#	41840
#	54697
#	69321
#	84062
#	98435
#	110493
#	122414
#	135880
#	149562
#	164534
#	177066
#	189568
#	206152
#	226126
#	244147
#	258922
#	271394
#	285231
#	298581
#	309638
#	321091
#	335635
#
# Disc length: 4643 seconds
#
# Revision: 0
# Processed by: cddbd v1.5.1PL0 Copyright (c) Steve Scherf et al.
# Submitted via: dBpowerAMP V4.0
#
DISCID=64122119
DTITLE=Various Artist - Kansas City Jazz 30' and 40's
DYEAR=2002
DGENRE=Blues
TTITLE0=Night Life
TTITLE1=In Dat Mornin'
TTITLE2=Somebody Stole My Gal
TTITLE3=Hard Times Stomp
TTITLE4=The Duck's Yas Yas Yas
TTITLE5=Toby
TTITLE6=Moten Swing
TTITLE7=Price Of Walls
TTITLE8=Overhand
TTITLE9=Echo In The Dark
TTITLE10=Time Out
TTITLE11=Every Tub
TTITLE12=Shorty George
TTITLE13=Cherry Red
TTITLE14=Vine Street Bustle
TTITLE15=Some Day Blues
TTITLE16=Holler Stomp
TTITLE17=Southern Fried
TTITLE18=My Gal Sal
TTITLE19=Keep Rockin'
TTITLE20=Dexters Blues
TTITLE21=Vine Street Boogie
TTITLE22=Hold 'Em, Hootie
TTITLE23=Sepian Bounce
TTITLE24=Come On Over To My House
EXTD=
EXTT0=
EXTT1=
EXTT2=
EXTT3=
EXTT4=
EXTT5=
EXTT6=
EXTT7=
EXTT8=
EXTT9=
EXTT10=
EXTT11=
EXTT12=
EXTT13=
EXTT14=
EXTT15=
EXTT16=
EXTT17=
EXTT18=
EXTT19=
EXTT20=
EXTT21=
EXTT22=
EXTT23=
EXTT24=
PLAYORDER=
